<?xml version="1.0" standalone="no"?>
<!DOCTYPE svg PUBLIC "-//W3C//DTD SVG 20010904//EN"
 "http://www.w3.org/TR/2001/REC-SVG-20010904/DTD/svg10.dtd">
<svg version="1.0" xmlns="http://www.w3.org/2000/svg"
 width="512.000000pt" height="512.000000pt" viewBox="0 0 512.000000 512.000000"
 preserveAspectRatio="xMidYMid meet">

<g transform="translate(0.000000,512.000000) scale(0.100000,-0.100000)"
fill="#000000" stroke="none">
<path d="M1295 5101 c-97 -45 -141 -158 -100 -259 11 -27 326 -347 1142 -1159
l1128 -1123 -1128 -1122 c-817 -814 -1131 -1133 -1142 -1160 -8 -21 -15 -56
-15 -78 0 -144 146 -241 275 -181 57 27 2441 2400 2466 2456 24 51 24 119 0
170 -25 56 -2409 2429 -2466 2456 -51 24 -109 24 -160 0z"/>
</g>
</svg>
