<?xml version="1.0" standalone="no"?>
<!DOCTYPE svg PUBLIC "-//W3C//DTD SVG 20010904//EN"
 "http://www.w3.org/TR/2001/REC-SVG-20010904/DTD/svg10.dtd">
<svg version="1.0" xmlns="http://www.w3.org/2000/svg"
 width="512.000000pt" height="512.000000pt" viewBox="0 0 512.000000 512.000000"
 preserveAspectRatio="xMidYMid meet">

<g transform="translate(0.000000,512.000000) scale(0.100000,-0.100000)"
fill="#000000" stroke="none">
<path d="M172 4591 c-211 -73 -230 -365 -30 -465 l52 -26 2366 0 2366 0 52 26
c162 81 189 294 53 417 -80 72 116 67 -2475 67 -2235 -1 -2333 -1 -2384 -19z"/>
<path d="M187 2806 c-60 -16 -113 -59 -152 -121 -26 -43 -30 -57 -30 -124 0
-65 4 -83 27 -122 31 -53 76 -94 128 -118 32 -15 254 -16 2400 -16 2146 0
2368 1 2400 16 52 24 97 65 128 118 23 39 27 57 27 122 0 67 -4 81 -30 124
-40 64 -101 110 -165 124 -80 17 -4669 14 -4733 -3z"/>
<path d="M142 994 c-162 -81 -189 -294 -53 -417 80 -72 -115 -67 2471 -67
2586 0 2391 -5 2471 67 137 124 107 343 -55 419 l-51 24 -2366 0 -2365 0 -52
-26z"/>
</g>
</svg>
